<svg xmlns="http://www.w3.org/2000/svg" width="88" height="88" viewBox="0 0 88 88" fill="none">
  <rect width="88" height="88" rx="24" fill="#ECEBE9"/>
  <rect x="32" y="28" width="22" height="28" rx="4" fill="#5D5A55"/>
  <rect x="36" y="32" width="14" height="16" rx="2" fill="#A09A92"/>
  <rect x="40" y="20" width="6" height="8" rx="2" fill="#3A3733"/>
  <rect x="30" y="24" width="26" height="4" rx="2" fill="#3A3733"/>
  <path d="M54 33H59C61.7614 33 64 35.2386 64 38V45C64 47.7614 61.7614 50 59 50H54V47H58C59.1046 47 60 46.1046 60 45V38C60 36.8954 59.1046 36 58 36H54V33Z" fill="#3A3733"/>
  <text x="44" y="78" text-anchor="middle" font-size="8" font-family="Arial, sans-serif" fill="#3A3733">PRESS</text>
</svg>
