<svg width="24" height="24" viewBox="0 0 24 24" fill="none" xmlns="http://www.w3.org/2000/svg">
<path d="M18.1406 12C18.1406 11.7408 18.0369 11.5023 17.8399 11.3157L9.62788 3.26959C9.44124 3.09332 9.21314 3 8.94355 3C8.41475 3 8 3.40438 8 3.94355C8 4.20276 8.10369 4.44124 8.26959 4.61752L15.818 12L8.26959 19.3825C8.10369 19.5588 8 19.7868 8 20.0565C8 20.5957 8.41475 21 8.94355 21C9.21314 21 9.44124 20.9067 9.62788 20.7201L17.8399 12.6843C18.0369 12.4873 18.1406 12.2592 18.1406 12Z" fill="#051428"/>
</svg>
