<svg width="24" height="24" viewBox="0 0 24 24" fill="none" xmlns="http://www.w3.org/2000/svg">
<path d="M12 17.0703C12.2592 17.0703 12.4977 16.9666 12.6843 16.7696L20.7304 8.55757C20.9067 8.37093 21 8.14282 21 7.87324C21 7.34443 20.5956 6.92969 20.0565 6.92969C19.7972 6.92969 19.5588 7.03337 19.3825 7.19927L12 14.7477L4.61747 7.19927C4.44122 7.03337 4.21316 6.92969 3.94347 6.92969C3.40432 6.92969 3 7.34443 3 7.87324C3 8.14282 3.09333 8.37093 3.27988 8.55757L11.3157 16.7696C11.5127 16.9666 11.7408 17.0703 12 17.0703Z" fill="#051428"/>
</svg>
