<svg width="24" height="24" viewBox="0 0 24 24" fill="none" xmlns="http://www.w3.org/2000/svg">
<path d="M4.26109 19.7363C4.61423 20.0795 5.19944 20.0795 5.54249 19.7363L12 13.2789L18.4574 19.7363C18.8006 20.0795 19.3958 20.0895 19.7389 19.7363C20.0819 19.3832 20.0819 18.8081 19.7389 18.4651L13.2814 11.9975L19.7389 5.53998C20.0819 5.19692 20.0921 4.61171 19.7389 4.26865C19.3858 3.91551 18.8006 3.91551 18.4574 4.26865L12 10.7261L5.54249 4.26865C5.19944 3.91551 4.60414 3.90542 4.26109 4.26865C3.91803 4.6218 3.91803 5.19692 4.26109 5.53998L10.7186 11.9975L4.26109 18.4651C3.91803 18.8081 3.90794 19.3933 4.26109 19.7363Z" fill="#051428"/>
</svg>
